PathFileType	4	(x/y/z)	S02_M20_T04
DataRate	CameraRate	NumFrames	NumMarkers	Units	OrigDataRate	OrigDataStartFrame	OrigNumFrames
240	240	6	51	mm	240	117	466
Frame#	Time	Sternum			R.Acromium			L.Acromium			Top.Head			R.ASIS			L.ASIS			R.PSIS			L.PSIS			R.Great.Tro			L.Great.Tro			R.Iliac.Crest			L.Iliac.Crest			V.Sacral			R.Thigh.Upper.Post			R.Thigh.Lower.Ant			R.Thigh.Lower.Post			R.Thigh.Upper.Ant			R.Knee.Lat			R.Knee.Med			R.Shank.Upper.Post			R.Shank.Lower.Ant			R.Shank.Lower.Post			R.Shank.Upper.Ant			R.Ankle.Lat			R.Ankle.Med			R.Heel.Upper			R.Heel.Med			R.Heel.Lat			R.Toe.Lat			R.Toe.Med			R.Toe.Tip			L.Thigh.Upper.Post			L.Thigh.Lower.Ant			L.Thigh.Lower.Post			L.Thigh.Upper.Ant			L.Knee.Lat			L.Knee.Med			L.Shank.Upper.Post			L.Shank.Lower.Ant			L.Shank.Lower.Post			L.Shank.Upper.Ant			L.Ankle.Lat			L.Ankle.Med			L.Heel.Upper			L.Heel.Med			L.Heel.Lat			L.Toe.Lat			L.Toe.Med			L.Toe.Tip			Cervical.Spine			Back			
		X1	Y1	Z1	X2	Y2	Z2	X3	Y3	Z3	X4	Y4	Z4	X5	Y5	Z5	X6	Y6	Z6	X7	Y7	Z7	X8	Y8	Z8	X9	Y9	Z9	X10	Y10	Z10	X11	Y11	Z11	X12	Y12	Z12	X13	Y13	Z13	X14	Y14	Z14	X15	Y15	Z15	X16	Y16	Z16	X17	Y17	Z17	X18	Y18	Z18	X19	Y19	Z19	X20	Y20	Z20	X21	Y21	Z21	X22	Y22	Z22	X23	Y23	Z23	X24	Y24	Z24	X25	Y25	Z25	X26	Y26	Z26	X27	Y27	Z27	X28	Y28	Z28	X29	Y29	Z29	X30	Y30	Z30	X31	Y31	Z31	X32	Y32	Z32	X33	Y33	Z33	X34	Y34	Z34	X35	Y35	Z35	X36	Y36	Z36	X37	Y37	Z37	X38	Y38	Z38	X39	Y39	Z39	X40	Y40	Z40	X41	Y41	Z41	X42	Y42	Z42	X43	Y43	Z43	X44	Y44	Z44	X45	Y45	Z45	X46	Y46	Z46	X47	Y47	Z47	X48	Y48	Z48	X49	Y49	Z49	X50	Y50	Z50	X51	Y51	Z51	

117	0.48333	-919.69	1096.1	297.43	-1041	1334.3	430.07	-1007.3	1331.6	139.66	-974.68	1614.3	289.93	-935.44	925.02	397.54	-943.32	909.12	181.88	-1154.7	951.23	358.39	-1168.9	957.73	285.09	-985.67	809.95	497.2	-1085.5	836.13	107.11	-1035.2	972.68	459.08	-1071.2	956.91	126.71	-1187	904.89	315.9	-901.4	625.57	485.42	-826.06	572.2	440.64	-884.83	538.02	467.67	-848.18	658.32	454.69	-840.21	474.62	451.45	-847.25	455.34	305.77	-842.58	256.43	435.52	-740.85	212.64	431.99	-805.93	192.94	429.97	-772.89	273.91	444.18	-748.51	108.43	423.38	-731.87	130.81	342.92	-788.12	71.966	360.05	-756.43	52.221	333.85	-775.81	42.087	394.99	-636.3	99.371	462.9	-594.01	119.21	366.81	-570.68	161.23	427.15	-1157.7	625.26	142.76	-1102.3	529.73	148.99	-1179.3	540.17	167.77	-1087.4	621	124.82	-1140.9	455.01	163.89	-1141.9	457.28	302.76	-1258.7	307.32	174.23	-1210.5	207.76	193.2	-1279.9	236.86	196.53	-1200.2	281.32	173.25	-1275.1	112	211.19	-1263.7	111.99	294.33	-1339	88.289	248.2	-1333	63.67	281.61	-1335.9	61.294	219.81	-1173.8	34.36	190.53	-1152.1	44.584	300.5	-1090.3	52.758	253.15	-1099.3	1393.7	277.05	-1182.3	1144.8	280.73
118	0.4875	-914.52	1094.7	297.62	-1035.8	1332.9	430.41	-1001.9	1330.3	140.12	-969.44	1612.9	290.74	-929.68	923.81	397.43	-938.47	908.09	181.71	-1149	950.03	359.29	-1163.7	956.62	286.04	-979.59	808.37	497.15	-1081.2	835.55	107.36	-1029.3	971.35	459.46	-1066.7	955.74	127.1	-1181.6	903.71	316.86	-895.52	624.28	485	-820.35	570.89	439.93	-879	536.72	467.18	-842.44	657.01	454	-834.17	473.62	451.06	-841.91	454.02	305.21	-832.4	255.56	435.35	-729.79	213.79	431.45	-794.46	192.79	429.67	-762.95	274.66	443.94	-735.23	109.28	422.99	-719.37	131.97	342.51	-774.44	71.948	359.8	-742.44	52.873	333.56	-761.24	42.496	394.99	-622.65	102.39	462.05	-581.15	123.24	365.77	-558.41	165.68	426.07	-1154.3	625.17	142.98	-1099.6	529.27	149.03	-1176.4	540.23	167.99	-1084.1	620.46	124.85	-1138.6	454.78	163.93	-1139.6	457.03	302.76	-1257.5	307.63	174.49	-1209.6	207.93	193.27	-1278.9	237.38	196.66	-1198.9	281.39	173.36	-1274.8	112.44	211.29	-1263.3	112.38	294.48	-1338.8	88.876	248.3	-1332.8	64.252	281.7	-1335.7	61.948	219.87	-1173.8	34.376	190.54	-1152	44.571	300.5	-1090.2	52.617	253.16	-1093.7	1392.4	277.43	-1177	1143.5	281.08
119	0.49167	-909.32	1093.2	297.81	-1030.5	1331.5	430.77	-996.51	1329	140.59	-964.19	1611.6	291.57	-923.91	922.57	397.3	-933.61	907.03	181.52	-1143.3	948.81	360.2	-1158.5	955.49	287	-973.51	806.75	497.1	-1076.8	834.93	107.61	-1023.4	970	459.85	-1062.2	954.57	127.49	-1176.1	902.52	317.84	-889.64	622.98	484.58	-814.61	569.59	439.27	-873.15	535.41	466.71	-836.67	655.71	453.36	-828.1	472.64	450.69	-836.52	452.71	304.7	-822.39	254.76	435.2	-718.98	214.92	430.89	-783.24	192.7	429.37	-753.18	275.38	443.68	-722.3	110.17	422.57	-707.25	133.13	342.06	-761.17	72.014	359.53	-728.89	53.589	333.23	-747.11	42.932	394.88	-609.38	105.34	461.12	-568.65	127.18	364.58	-546.5	169.95	424.91	-1151	625.03	143.22	-1096.8	528.79	149.05	-1173.5	540.23	168.24	-1080.8	619.89	124.88	-1136.2	454.51	163.98	-1137.2	456.72	302.76	-1256.1	307.95	174.75	-1208.6	208.07	193.36	-1277.8	237.91	196.79	-1197.6	281.44	173.48	-1274.4	112.89	211.4	-1262.9	112.76	294.63	-1338.5	89.49	248.39	-1332.6	64.851	281.78	-1335.5	62.622	219.93	-1173.7	34.392	190.55	-1151.9	44.558	300.49	-1090.1	52.477	253.16	-1088.3	1391.1	277.84	-1171.6	1142.2	281.46
120	0.49583	-904.09	1091.7	298.01	-1025.2	1330.1	431.16	-991.09	1327.6	141.08	-958.92	1610.2	292.41	-918.14	921.29	397.16	-928.75	905.96	181.32	-1137.6	947.58	361.12	-1153.2	954.35	287.96	-967.42	805.12	497.05	-1072.5	834.27	107.87	-1017.4	968.63	460.25	-1057.8	953.38	127.87	-1170.6	901.32	318.83	-883.75	621.7	484.17	-808.83	568.31	438.65	-867.27	534.12	466.25	-830.88	654.43	452.78	-821.98	471.69	450.33	-831.09	451.43	304.23	-812.54	254.04	435.06	-708.43	216	430.32	-772.28	192.64	429.07	-743.6	276.06	443.41	-709.75	111.05	422.12	-695.5	134.28	341.58	-748.3	72.141	359.25	-715.8	54.343	332.86	-733.45	43.377	394.68	-596.51	108.17	460.13	-556.53	130.99	363.25	-534.96	174.01	423.66	-1147.5	624.86	143.5	-1094	528.27	149.07	-1170.5	540.19	168.5	-1077.5	619.3	124.92	-1133.8	454.2	164.03	-1134.5	456.35	302.77	-1254.7	308.29	174.98	-1207.6	208.2	193.46	-1276.7	238.44	196.93	-1196.2	281.46	173.61	-1274.1	113.35	211.51	-1262.5	113.15	294.77	-1338.2	90.137	248.49	-1332.4	65.471	281.87	-1335.3	63.319	219.98	-1173.7	34.41	190.56	-1151.9	44.545	300.49	-1090	52.339	253.17	-1082.8	1389.8	278.26	-1166.2	1140.9	281.87
121	0.5	-898.84	1090.1	298.21	-1019.9	1328.7	431.57	-985.66	1326.2	141.57	-953.64	1608.9	293.27	-912.36	919.99	396.99	-923.88	904.87	181.11	-1131.8	946.34	362.04	-1147.8	953.19	288.93	-961.32	803.47	497	-1068.1	833.57	108.13	-1011.3	967.25	460.65	-1053.3	952.2	128.26	-1165	900.11	319.84	-877.84	620.43	483.78	-803	567.08	438.07	-861.35	532.86	465.81	-825.06	653.18	452.24	-815.82	470.78	449.99	-825.6	450.17	303.79	-802.88	253.37	434.93	-698.15	217.02	429.72	-761.59	192.61	428.76	-734.2	276.69	443.11	-697.58	111.92	421.63	-684.13	135.4	341.06	-735.87	72.307	358.94	-703.18	55.108	332.45	-720.27	43.813	394.38	-584.06	110.86	459.08	-544.81	134.64	361.81	-523.78	177.83	422.34	-1144.1	624.64	143.8	-1091.1	527.74	149.08	-1167.5	540.1	168.78	-1074.1	618.69	124.95	-1131.2	453.85	164.08	-1131.7	455.9	302.78	-1253.2	308.65	175.18	-1206.6	208.31	193.57	-1275.5	238.97	197.08	-1194.8	281.47	173.75	-1273.7	113.83	211.62	-1262.1	113.55	294.92	-1337.9	90.821	248.59	-1332.2	66.115	281.95	-1335	64.041	220.04	-1173.6	34.428	190.57	-1151.8	44.531	300.49	-1089.9	52.201	253.19	-1077.4	1388.5	278.7	-1160.7	1139.5	282.31
122	0.50417	-893.55	1088.6	298.41	-1014.5	1327.2	432	-980.23	1324.9	142.08	-948.34	1607.5	294.15	-906.58	918.66	396.8	-919	903.77	180.88	-1126.1	945.09	362.96	-1142.4	952	289.89	-955.21	801.82	496.97	-1063.7	832.83	108.4	-1005.3	965.86	461.04	-1048.8	951	128.64	-1159.4	898.89	320.86	-871.9	619.19	483.4	-797.11	565.88	437.54	-855.38	531.63	465.38	-819.21	651.97	451.74	-809.61	469.9	449.66	-820.05	448.96	303.4	-793.4	252.76	434.79	-688.14	217.97	429.1	-751.19	192.59	428.45	-725	277.26	442.78	-685.81	112.75	421.11	-673.16	136.45	340.51	-723.89	72.488	358.61	-691.04	55.857	332	-707.58	44.223	394.01	-572.02	113.38	457.96	-533.5	138.08	360.28	-512.99	181.4	420.94	-1140.6	624.39	144.14	-1088.2	527.18	149.07	-1164.4	539.96	169.08	-1070.7	618.06	124.99	-1128.6	453.47	164.13	-1128.8	455.39	302.79	-1251.5	309.03	175.36	-1205.5	208.4	193.7	-1274.2	239.5	197.22	-1193.2	281.46	173.91	-1273.3	114.31	211.72	-1261.7	113.96	295.05	-1337.6	91.546	248.69	-1332	66.788	282.03	-1334.8	64.791	220.08	-1173.6	34.447	190.59	-1151.7	44.517	300.49	-1089.9	52.064	253.2	-1071.9	1387.1	279.16	-1155.2	1138.1	282.77
